<?xml version="1.0" encoding="utf-8"?>
<!-- Generator: Adobe Illustrator 16.0.0, SVG Export Plug-In . SVG Version: 6.00 Build 0)  -->
<!DOCTYPE svg PUBLIC "-//W3C//DTD SVG 1.1//EN" "http://www.w3.org/Graphics/SVG/1.1/DTD/svg11.dtd" [
	<!ENTITY ns_flows "http://ns.adobe.com/Flows/1.0/">
	<!ENTITY ns_extend "http://ns.adobe.com/Extensibility/1.0/">
	<!ENTITY ns_ai "http://ns.adobe.com/AdobeIllustrator/10.0/">
	<!ENTITY ns_graphs "http://ns.adobe.com/Graphs/1.0/">
]>
<svg version="1.1" id="Layer_1" xmlns:x="&ns_extend;" xmlns:i="&ns_ai;" xmlns:graph="&ns_graphs;"
	 xmlns="http://www.w3.org/2000/svg" xmlns:xlink="http://www.w3.org/1999/xlink" xmlns:a="http://ns.adobe.com/AdobeSVGViewerExtensions/3.0/"
	 x="0px" y="0px" width="15.04px" height="9.557px" viewBox="0 0 15.04 9.557" enable-background="new 0 0 15.04 9.557"
	 xml:space="preserve">
<g>
	<g>
		<g>
			<g>
				<path fill="#BDBDBD" d="M7.52,6.032c4.111,0,4.933-1.724,4.927-1.727C11.852-2.931,8.235,1.143,7.52,1.143
					S3.189-2.931,2.593,4.305C2.587,4.308,3.409,6.032,7.52,6.032z"/>
				<path fill="#BDBDBD" d="M13.256,4.631c-0.273,0.555-0.841,1.052-1.663,1.441c-1.095,0.521-2.54,0.807-4.073,0.807
					c-1.531,0-2.978-0.286-4.072-0.807c-0.822-0.39-1.39-0.887-1.664-1.441C0.671,5.153,0,5.828,0,6.565
					c0,1.653,3.367,2.992,7.52,2.992c4.154,0,7.52-1.339,7.52-2.992C15.04,5.828,14.369,5.153,13.256,4.631z"/>
			</g>
		</g>
	</g>
</g>
</svg>
