<?xml version="1.0" encoding="utf-8"?>
<!-- Generator: Adobe Illustrator 16.0.0, SVG Export Plug-In . SVG Version: 6.00 Build 0)  -->
<!DOCTYPE svg PUBLIC "-//W3C//DTD SVG 1.1//EN" "http://www.w3.org/Graphics/SVG/1.1/DTD/svg11.dtd" [
	<!ENTITY ns_flows "http://ns.adobe.com/Flows/1.0/">
	<!ENTITY ns_extend "http://ns.adobe.com/Extensibility/1.0/">
	<!ENTITY ns_ai "http://ns.adobe.com/AdobeIllustrator/10.0/">
	<!ENTITY ns_graphs "http://ns.adobe.com/Graphs/1.0/">
]>
<svg version="1.1" id="Layer_1" xmlns:x="&ns_extend;" xmlns:i="&ns_ai;" xmlns:graph="&ns_graphs;"
	 xmlns="http://www.w3.org/2000/svg" xmlns:xlink="http://www.w3.org/1999/xlink" xmlns:a="http://ns.adobe.com/AdobeSVGViewerExtensions/3.0/"
	 x="0px" y="0px" width="13.591px" height="14.75px" viewBox="0 0 13.591 14.75" enable-background="new 0 0 13.591 14.75"
	 xml:space="preserve">
<g>
	<g>
		<path fill="#BDBDBD" d="M7.362,7.375c-1.71,0-3.097-1.387-3.097-3.098c0-1.711,1.386-3.099,3.097-3.099
			c1.711,0,3.099,1.387,3.099,3.099C10.46,5.988,9.073,7.375,7.362,7.375L7.362,7.375z M7.361,0c-2.386,0-4.32,1.936-4.32,4.321
			c0,1.79,1.083,3.321,2.629,3.978c0,0,0.01,0.004,0.026,0.012C5.803,8.367,6.215,8.6,6.273,9.052
			C6.276,9.084,6.28,9.123,6.28,9.158c0,0.602,0,2.451,0,2.451s0.003,0.036-0.007,0.102c-0.016,0.109-0.061,0.305-0.194,0.568
			c-0.179,0.254-0.286,0.564-0.286,0.902c0,0.866,0.702,1.568,1.568,1.568s1.572-0.702,1.572-1.568c0-0.246-0.056-0.477-0.16-0.686
			c-0.039-0.062-0.07-0.12-0.101-0.176c-0.003-0.006-0.005-0.01-0.009-0.016c-0.206-0.396-0.215-0.643-0.215-0.688
			c0-0.003,0-0.006,0-0.006s0-1.851,0-2.45c0-0.51,0.441-0.773,0.574-0.845c0.01-0.005,0.016-0.007,0.023-0.01
			c0.003,0,0.01-0.003,0.016-0.007c1.542-0.659,2.623-2.191,2.623-3.977C11.685,1.936,9.75,0,7.361,0L7.361,0z"/>
		<path fill="#BDBDBD" d="M9.652,3.362C9.605,3.405,6.827,5.967,6.27,6.489C6.7,6.735,7.18,6.756,7.398,6.747
			C7.583,6.575,9.06,5.185,9.824,4.488C9.869,3.992,9.734,3.566,9.652,3.362L9.652,3.362z"/>
		<path fill="#BDBDBD" d="M9.392,2.877C8.866,3.351,6.339,5.686,5.886,6.106c0,0,0,0-0.059,0.054c-0.003,0-0.007,0.007-0.012,0.007
			c-0.008,0.01-0.014,0.016-0.023,0.022C5.616,6.053,5.359,5.727,5.359,5.727l0.053-0.043C5.559,5.544,8.683,2.663,8.96,2.406
			C9.083,2.517,9.252,2.678,9.392,2.877L9.392,2.877z"/>
		<path fill="#BDBDBD" d="M5.828,6.16c-0.007,0.007-0.01,0.009-0.01,0.009s0,0-0.002-0.002C5.821,6.167,5.824,6.16,5.828,6.16
			L5.828,6.16z"/>
		<path fill="#BDBDBD" d="M11.713,9.753c0,0,0.142,1.59,1.878,1.921c-0.654-0.12-1.983,1.035-1.934,1.89
			c-0.033-0.634-0.709-1.794-1.878-1.92C10.348,11.69,11.595,10.89,11.713,9.753L11.713,9.753z"/>
		<path fill="#BDBDBD" d="M1.343,5.056c0,0,0.097,1.104,1.304,1.333C2.192,6.306,1.27,7.108,1.305,7.701
			C1.282,7.261,0.813,6.455,0,6.369C0.396,6.401,1.261,5.844,1.343,5.056L1.343,5.056z"/>
		<path fill="#BDBDBD" d="M3.137,7.847c0,0,0.141,1.591,1.879,1.921c-0.655-0.119-1.984,1.037-1.935,1.891
			c-0.033-0.635-0.708-1.795-1.878-1.92C1.771,9.785,3.019,8.984,3.137,7.847L3.137,7.847z"/>
	</g>
</g>
</svg>
